<!-- Arrow down -->
<svg xmlns="http://www.w3.org/2000/svg" viewBox="0 0 24 24" fill="currentColor" class="w-6 h-6">
  <path fill-rule="evenodd" d="M12.53 16.28a.75.75 0 01-1.06 0l-7.5-7.5a.75.75 0 011.06-1.06L12 14.69l6.97-6.97a.75.75 0 111.06 1.06l-7.5 7.5z" clip-rule="evenodd" />
</svg>
<!-- More options -->
<svg xmlns="http://www.w3.org/2000/svg" viewBox="0 0 24 24" fill="currentColor" class="w-6 h-6">
  <path fill-rule="evenodd" d="M10.5 6a1.5 1.5 0 113 0 1.5 1.5 0 01-3 0zm0 6a1.5 1.5 0 113 0 1.5 1.5 0 01-3 0zm0 6a1.5 1.5 0 113 0 1.5 1.5 0 01-3 0z" clip-rule="evenodd" />
</svg>
<!-- Emoji -->
<svg xmlns="http://www.w3.org/2000/svg" fill="none" viewBox="0 0 24 24" stroke-width="1.5" stroke="currentColor" class="w-6 h-6">
  <path stroke-linecap="round" stroke-linejoin="round" d="M15.182 15.182a4.5 4.5 0 01-6.364 0M21 12a9 9 0 11-18 0 9 9 0 0118 0zM9.75 9.75c0 .414-.168.75-.375.75S9 10.164 9 9.75 9.168 9 9.375 9s.375.336.375.75zm-.375 0h.008v.015h-.008V9.75zm5.625 0c0 .414-.168.75-.375.75s-.375-.336-.375-.75.168-.75.375-.75.375.336.375.75zm-.375 0h.008v.015h-.008V9.75z" />
</svg>
<!-- Chat -->
<svg xmlns="http://www.w3.org/2000/svg" viewBox="0 0 24 24" fill="currentColor" class="w-6 h-6">
  <path fill-rule="evenodd" d="M4.848 2.771A49.144 49.144 0 0112 2.25c2.43 0 4.817.178 7.152.52 1.978.292 3.348 2.024 3.348 3.97v6.02c0 1.946-1.37 3.678-3.348 3.97a48.901 48.901 0 01-3.476.383.39.39 0 00-.297.17l-2.755 4.133a.75.75 0 01-1.248 0l-2.755-4.133a.39.39 0 00-.297-.17 48.9 48.9 0 01-3.476-.384c-1.978-.29-3.348-2.024-3.348-3.97V6.741c0-1.946 1.37-3.68 3.348-3.97zM6.75 8.25a.75.75 0 01.75-.75h9a.75.75 0 010 1.5h-9a.75.75 0 01-.75-.75zm.75 2.25a.75.75 0 000 1.5H12a.75.75 0 000-1.5H7.5z" clip-rule="evenodd" />
</svg>
<!-- Pencil -->
<svg xmlns="http://www.w3.org/2000/svg" viewBox="0 0 24 24" fill="currentColor" class="w-6 h-6">
  <path d="M21.731 2.269a2.625 2.625 0 00-3.712 0l-1.157 1.157 3.712 3.712 1.157-1.157a2.625 2.625 0 000-3.712zM19.513 8.199l-3.712-3.712-12.15 12.15a5.25 5.25 0 00-1.32 2.214l-.8 2.685a.75.75 0 00.933.933l2.685-.8a5.25 5.25 0 002.214-1.32L19.513 8.2z" />
</svg>
<!-- Send -->
<svg xmlns="http://www.w3.org/2000/svg" viewBox="0 0 24 24" fill="currentColor" class="w-6 h-6">
  <path d="M3.478 2.405a.75.75 0 00-.926.94l2.432 7.905H13.5a.75.75 0 010 1.5H4.984l-2.432 7.905a.75.75 0 00.926.94 60.519 60.519 0 0018.445-8.986.75.75 0 000-1.218A60.517 60.517 0 003.478 2.405z" />
</svg>